<svg
  xmlns="http://www.w3.org/2000/svg"
  viewBox="0 0 24 24"
>
  <title>Portfolio</title>

  <style>
    path {
      fill: #111827;
    }

    @media (prefers-color-scheme: dark) {
      path {
        fill: #ffffff;
      }
    }
  </style>

  <path d="M12 2a10 10 0 1 0 10 10A10.011 10.011 0 0 0 12 2zm6.93 6h-3.17a15.8 15.8 0 0 0-1.1-3.39A8.03 8.03 0 0 1 18.93 8zM12 4.07A13.6 13.6 0 0 1 13.78 8h-3.56A13.6 13.6 0 0 1 12 4.07zM5.07 8a8.03 8.03 0 0 1 4.27-3.39A15.8 15.8 0 0 0 8.24 8zM4.07 12c0-.69.08-1.36.22-2h3.48a17.9 17.9 0 0 0 0 4H4.29c-.14-.64-.22-1.31-.22-2zm1 4h3.17a15.8 15.8 0 0 0 1.1 3.39A8.03 8.03 0 0 1 5.07 16zM12 19.93A13.6 13.6 0 0 1 10.22 16h3.56A13.6 13.6 0 0 1 12 19.93zM14.66 19.39A15.8 15.8 0 0 0 15.76 16h3.17a8.03 8.03 0 0 1-4.27 3.39zM16.23 14a17.9 17.9 0 0 0 0-4h3.48c.14.64.22 1.31.22 2s-.08 1.36-.22 2z"/>
</svg>
