<svg
  xmlns="http://www.w3.org/2000/svg"
  viewBox="0 0 24 24"
>
  <title>Instagram</title>

  <defs>
    <linearGradient id="igGradient" x1="0%" y1="100%" x2="100%" y2="0%">
      <stop offset="0%" stop-color="#F58529"/>
      <stop offset="30%" stop-color="#DD2A7B"/>
      <stop offset="60%" stop-color="#8134AF"/>
      <stop offset="100%" stop-color="#515BD4"/>
    </linearGradient>
  </defs>

  <style>
    path {
      fill: url(#igGradient);
    }

    @media (prefers-color-scheme: dark) {
      path {
        fill: #ffffff;
      }
    }
  </style>

  <path d="M12 2.163c3.204 0 3.584.012 4.85.07 1.366.062 2.633.343 3.608 1.318.975.975 1.256 2.242 1.318 3.608.058 1.266.07 1.646.07 4.84s-.012 3.574-.07 4.84c-.062 1.366-.343 2.633-1.318 3.608-.975.975-2.242 1.256-3.608 1.318-1.266.058-1.646.07-4.85.07s-3.584-.012-4.85-.07c-1.366-.062-2.633-.343-3.608-1.318-.975-.975-1.256-2.242-1.318-3.608C2.175 15.577 2.163 15.197 2.163 12s.012-3.574.07-4.84c.062-1.366.343-2.633 1.318-3.608.975-.975 2.242-1.256 3.608-1.318C8.426 2.175 8.806 2.163 12 2.163zm0 3.675a6.162 6.162 0 1 0 0 12.324 6.162 6.162 0 0 0 0-12.324zm0 10.162a3.999 3.999 0 1 1 0-7.998 3.999 3.999 0 0 1 0 7.998zm6.406-11.845a1.44 1.44 0 1 0 0 2.88 1.44 1.44 0 0 0 0-2.88z"/>
</svg>
