<svg xmlns="http://www.w3.org/2000/svg" width="1024" height="1024" viewBox="0 0 1024 1024">

  <title>Logo</title>

  <style>
    .bg { fill: #D6FF8A; }
    .ring { stroke: #fe1bdd; }
    .mark { fill: #1C27FF; }

    @media (prefers-color-scheme: dark) {
      .bg { fill: #0B0F16; }
      .ring { stroke: #ffffff; }
      .mark { fill: #ffffff; }
    }
  </style>
  
<circle cx="512" cy="512" r="520" class="bg"/>

<path
  d="M 512 4 A 508 508 0 1 1 511.9 4"
  fill="none"
  class="ring"
  stroke-width="28"
  stroke-linecap="round"
  stroke-dasharray="2850 120"
  stroke-dashoffset="-630"
/>
  
<path d="M 256.911 244 L 246.323 244.500 239.953 252 C 225.799 268.666, 210.130 287.026, 202.292 296.130 C 197.731 301.427, 194 306.039, 194 306.380 C 194 306.721, 244.577 307, 306.393 307 C 395.420 307, 418.872 307.260, 419.200 308.250 C 419.428 308.938, 419.293 341.450, 418.901 380.500 C 418.508 419.550, 418.134 479.175, 418.070 513 C 418.005 546.825, 417.527 582.375, 417.006 592 C 415.157 626.197, 408.327 652.409, 395.844 673.213 C 392.237 679.223, 391.266 680.131, 386.566 681.890 C 373.137 686.914, 352.771 688.453, 337.750 685.579 C 305.618 679.431, 281.432 661.737, 259.732 628.500 C 246.521 608.265, 237.871 589.330, 231.377 566.431 C 229.360 559.319, 227.576 553.338, 227.411 553.140 C 227.247 552.941, 222.475 556.998, 216.806 562.155 C 211.138 567.311, 199.413 577.772, 190.750 585.400 C 180.042 594.829, 175 599.926, 175 601.321 C 175 603.845, 178.106 615.351, 182.201 628 C 192.816 660.787, 205.315 682.451, 224.932 702.068 C 245.871 723.008, 269.198 735.588, 295.411 740.078 C 305.200 741.754, 323.580 740.716, 333 737.954 C 374.075 725.912, 430.397 680.518, 459.697 635.839 C 467.970 623.225, 476.239 605.876, 479.641 594 L 482.362 584.500 482.749 542.250 L 483.136 500 485.818 499.924 C 487.293 499.882, 504.250 499.875, 523.500 499.907 C 542.750 499.940, 568.188 499.974, 580.029 499.983 L 601.559 500 605.183 512.750 C 608.505 524.437, 622.344 572.179, 629.025 595 C 630.554 600.225, 634.376 613.275, 637.518 624 C 640.659 634.725, 644.936 649.575, 647.023 657 C 651.054 671.350, 652.364 675.854, 667.532 727.500 C 672.863 745.650, 678.107 763.875, 679.186 768 C 680.266 772.125, 681.522 775.884, 681.978 776.354 C 682.434 776.823, 687.013 774.699, 692.154 771.634 C 697.294 768.568, 706.900 763.956, 713.500 761.385 C 720.100 758.813, 725.634 756.603, 725.798 756.473 C 726.153 756.193, 726.368 754.709, 733.483 703.500 C 736.539 681.500, 739.685 659.450, 740.473 654.500 C 741.261 649.550, 745.089 622.550, 748.979 594.500 C 752.870 566.450, 756.922 537.425, 757.984 530 C 762.094 501.265, 777.256 393.175, 786.634 325.750 L 790.355 299 849.428 298.750 C 881.917 298.613, 927.063 298.638, 949.750 298.807 C 978.560 299.021, 991 298.791, 991 298.044 C 991 297.456, 987.666 290.319, 983.592 282.183 L 976.183 267.391 808.989 267.139 C 717.033 267, 641.962 267.249, 642.165 267.693 C 642.368 268.137, 645.894 275.137, 650.001 283.250 L 657.468 298 699.234 298 C 738.347 298, 741 298.111, 740.992 299.750 C 740.988 300.712, 740.509 304.425, 739.927 308 C 737.420 323.402, 716.333 470.657, 706.992 538 C 704.741 554.225, 701.347 578.423, 699.450 591.773 C 697.552 605.122, 696 617.160, 696 618.523 C 696 620.026, 695.427 621, 694.542 621 C 693.115 621, 691.941 617.736, 687.166 600.500 C 686.099 596.650, 682.642 584.725, 679.482 574 C 676.322 563.275, 672.724 550.675, 671.486 546 C 670.248 541.325, 666.667 528.725, 663.528 518 C 657.718 498.149, 654.035 485.388, 633.635 414.435 C 627.300 392.399, 619.795 366.524, 616.958 356.935 C 609.270 330.946, 600.003 298.603, 600.001 297.750 C 600.001 297.337, 606.525 297, 614.500 297 C 624.764 297, 629 296.664, 629 295.850 C 629 295.217, 624.224 286.104, 618.387 275.600 C 612.550 265.095, 606.228 253.688, 604.338 250.250 L 600.902 244 596.201 244.005 C 593.615 244.008, 518.600 243.896, 429.500 243.755 C 340.400 243.615, 262.735 243.725, 256.911 244 M 484.664 355.665 C 484.299 387.930, 484 423.930, 484 435.665 L 484 457 536.500 457 C 565.601 457, 589 456.612, 589 456.130 C 589 455.652, 587.686 450.814, 586.081 445.380 C 584.475 439.946, 582.500 433.025, 581.691 430 C 580.882 426.975, 573.603 401.550, 565.517 373.500 C 557.430 345.450, 549.168 316.763, 547.157 309.750 L 543.500 297.001 514.414 297 L 485.328 297 484.664 355.665" class="mark"
fill-rule="evenodd"
/>

</svg>
