<svg xmlns="http://www.w3.org/2000/svg"
     viewBox="0 0 1024 1024"
     aria-label="JV Logo Light/Dark">

  <title>JV Logo</title>

  <!-- Dark mode styles -->
  <style>
    .bg { fill: #D6FF8A; }
    .ring { stroke: #fe1bdd; }
    .mark { fill: #1C27FF; }

    @media (prefers-color-scheme: dark) {
      .bg { fill: #0B0F16; }
      .ring { stroke: #ffffff; }
      .mark { fill: #ffffff; }
    }
  </style>

  <!-- Background -->
  <circle cx="512" cy="512" r="360" class="bg"/>

  <!-- Ring (gap tuned for T head) -->
  <path
    d="M 512 164 A 348 348 0 1 1 511.9 164"
    fill="none"
    class="ring"
    stroke-width="28"
    stroke-linecap="round"
    stroke-dasharray="2850 120"
    stroke-dashoffset="-430"
  />

  <!-- JV shape -->
<path d="M 306.928 319.837 C 306.143 320.023, 302.350 323.836, 298.500 328.311 C 294.650 332.785, 289.813 338.199, 287.750 340.341 C 285.688 342.483, 284 344.533, 284 344.897 C 284 345.261, 281.308 348.471, 278.017 352.030 C 273.756 356.639, 272.030 359.291, 272.017 361.250 L 272 364 353.891 364 L 435.781 364 435.878 370.449 C 435.931 373.996, 435.530 377.172, 434.987 377.508 C 433.535 378.406, 433.639 528, 435.092 528 C 435.864 528, 436.009 533.636, 435.585 547.250 C 434.548 580.553, 433.866 592, 432.918 592 C 432.413 592, 432 594.700, 432 598 C 432 601.333, 431.556 604, 431 604 C 430.450 604, 430 606.223, 430 608.941 C 430 611.659, 429.550 614.160, 429 614.500 C 428.450 614.840, 428 616.415, 428 618 C 428 619.585, 427.550 621.160, 427 621.500 C 426.450 621.840, 426 623.441, 426 625.059 C 426 626.677, 425.550 628, 425 628 C 424.450 628, 424 628.900, 424 630 C 424 631.100, 423.550 632, 423 632 C 422.450 632, 422 632.719, 422 633.599 C 422 634.478, 420.650 636.459, 419 638 C 417.350 639.541, 416 641.522, 416 642.401 C 416 643.333, 415.166 644, 414 644 C 412.900 644, 412 644.450, 412 645 C 412 645.550, 410.452 646, 408.559 646 C 406.666 646, 404.840 646.450, 404.500 647 C 404.133 647.594, 397.843 648, 389 648 C 380.157 648, 373.867 647.594, 373.500 647 C 373.160 646.450, 370.884 646, 368.441 646 C 365.998 646, 364 645.550, 364 645 C 364 644.450, 363.100 644, 362 644 C 360.900 644, 360 643.550, 360 643 C 360 642.450, 359.100 642, 358 642 C 356.900 642, 356 641.550, 356 641 C 356 640.450, 354.650 640, 353 640 C 351.350 640, 350 639.626, 350 639.169 C 350 638.712, 348.762 637.699, 347.250 636.919 C 345.738 636.139, 343.628 634.712, 342.561 633.750 C 341.495 632.788, 340.217 632, 339.722 632 C 338.316 632, 322 614.802, 322 613.320 C 322 612.594, 321.550 612, 321 612 C 320.450 612, 319.998 611.438, 319.995 610.750 C 319.993 610.063, 318.755 608.150, 317.245 606.500 C 315.735 604.850, 313.861 602.263, 313.081 600.750 C 312.301 599.237, 311.288 598, 310.831 598 C 310.374 598, 310 597.138, 310 596.083 C 310 595.029, 309.663 594.017, 309.250 593.833 C 308.170 593.353, 304 585.071, 304 583.405 C 304 582.632, 303.550 582, 303 582 C 302.450 582, 302 581.100, 302 580 C 302 578.900, 301.550 578, 301 578 C 300.450 578, 300 576.650, 300 575 C 300 573.350, 299.550 572, 299 572 C 298.450 572, 298 571.127, 298 570.059 C 298 568.991, 297.550 567.840, 297 567.500 C 296.450 567.160, 296 565.334, 296 563.441 C 296 561.548, 295.550 560, 295 560 C 294.450 560, 294 558.650, 294 557 C 294 552.980, 291.034 552.975, 287.863 556.991 C 286.563 558.636, 284.983 559.986, 284.351 559.991 C 283.719 559.996, 279.539 563.600, 275.061 568 C 270.584 572.400, 266.263 576, 265.460 576 C 264.657 576, 264 576.900, 264 578 C 264 579.100, 263.424 580, 262.721 580 C 260.435 580, 254 587.094, 254 589.614 C 254 590.926, 254.450 592, 255 592 C 255.550 592, 256 593.800, 256 596 C 256 598.200, 256.450 600, 257 600 C 257.550 600, 258 601.098, 258 602.441 C 258 603.784, 258.450 605.160, 259 605.500 C 259.550 605.840, 260 607.441, 260 609.059 C 260 610.677, 260.450 612, 261 612 C 261.550 612, 262 613.350, 262 615 C 262 616.650, 262.394 618, 262.875 618 C 263.356 618, 264.009 619.296, 264.326 620.879 C 264.643 622.463, 265.599 624.456, 266.451 625.308 C 267.303 626.160, 268 627.564, 268 628.429 C 268 629.293, 268.337 630.004, 268.750 630.008 C 269.646 630.017, 272 634.858, 272 636.691 C 272 637.402, 272.900 638.545, 274 639.232 C 275.100 639.919, 276 640.981, 276 641.592 C 276 642.203, 277.350 644.116, 279 645.843 C 280.650 647.569, 282 649.414, 282 649.943 C 282 651.251, 296.832 666, 298.147 666 C 298.725 666, 300.459 667.350, 302 669 C 303.541 670.650, 305.423 672, 306.180 672 C 306.938 672, 308.207 672.900, 309 674 C 309.793 675.100, 311.242 676, 312.221 676 C 313.199 676, 314.004 676.337, 314.008 676.750 C 314.017 677.648, 318.860 680, 320.699 680 C 321.415 680, 322 680.450, 322 681 C 322 681.550, 322.900 682, 324 682 C 325.100 682, 326 682.450, 326 683 C 326 683.550, 327.350 684, 329 684 C 330.650 684, 332 684.403, 332 684.895 C 332 686.884, 359.453 688.947, 361.303 687.097 C 361.906 686.494, 364.110 686, 366.200 686 C 368.290 686, 370 685.550, 370 685 C 370 684.450, 371.350 684, 373 684 C 374.650 684, 376 683.550, 376 683 C 376 682.450, 376.900 682, 378 682 C 379.100 682, 380 681.550, 380 681 C 380 680.450, 380.900 680, 382 680 C 383.100 680, 384 679.550, 384 679 C 384 678.450, 384.900 678, 386 678 C 387.100 678, 388 677.550, 388 677 C 388 676.450, 388.590 676, 389.311 676 C 390.033 676, 391.589 675.100, 392.770 674 C 393.950 672.900, 395.606 672, 396.450 672 C 397.293 672, 398.545 671.100, 399.232 670 C 399.919 668.900, 401.273 668, 402.241 668 C 403.208 668, 404 667.647, 404 667.216 C 404 666.784, 405.396 665.607, 407.102 664.599 C 408.808 663.591, 411.772 661.244, 413.688 659.383 C 415.604 657.522, 417.604 656, 418.133 656 C 418.662 656, 421.345 653.750, 424.095 651 C 426.845 648.250, 429.530 646, 430.062 646 C 431.303 646, 458 619.459, 458 618.225 C 458 617.714, 459.350 615.884, 461 614.157 C 462.650 612.431, 464 610.568, 464 610.018 C 464 609.468, 465.350 607.727, 467 606.150 C 468.650 604.574, 470 602.545, 470 601.642 C 470 600.739, 470.450 600, 471 600 C 471.550 600, 472 599.100, 472 598 C 472 596.900, 472.450 596, 473 596 C 473.550 596, 474 595.100, 474 594 C 474 592.900, 474.450 592, 475 592 C 475.550 592, 476 591.415, 476 590.699 C 476 588.860, 478.352 584.017, 479.250 584.008 C 479.663 584.004, 480 582.200, 480 580 C 480 577.800, 480.450 576, 481 576 C 481.647 576, 482 564.202, 482 542.607 C 482 513.079, 482.183 509.144, 483.582 508.607 C 484.452 508.273, 504.702 508, 528.582 508 C 570.893 508, 572 508.049, 572 509.941 C 572 511.009, 572.450 512.160, 573 512.500 C 573.550 512.840, 574 514.216, 574 515.559 C 574 516.902, 574.450 518, 575 518 C 575.550 518, 576 519.350, 576 521 C 576 522.650, 576.450 524, 577 524 C 577.550 524, 578 525.800, 578 528 C 578 530.200, 578.450 532, 579 532 C 579.550 532, 580 533.800, 580 536 C 580 538.200, 580.450 540, 581 540 C 581.550 540, 582 541.323, 582 542.941 C 582 544.559, 582.450 546.160, 583 546.500 C 583.550 546.840, 584 548.415, 584 550 C 584 551.585, 584.450 553.160, 585 553.500 C 585.550 553.840, 586 555.190, 586 556.500 C 586 557.810, 586.450 559.160, 587 559.500 C 587.550 559.840, 588 561.640, 588 563.500 C 588 565.360, 588.450 567.160, 589 567.500 C 589.550 567.840, 590 569.072, 590 570.238 C 590 572.490, 591.663 578.347, 593.123 581.236 C 593.605 582.191, 594 583.852, 594 584.927 C 594 586.002, 594.450 587.160, 595 587.500 C 595.550 587.840, 596 589.891, 596 592.059 C 596 594.227, 596.450 596, 597 596 C 597.550 596, 598 597.350, 598 599 C 598 600.650, 598.450 602, 599 602 C 599.550 602, 600 603.350, 600 605 C 600 606.650, 600.401 608, 600.891 608 C 601.380 608, 602.055 609.575, 602.391 611.500 C 602.726 613.425, 603.275 616.579, 603.610 618.509 C 603.946 620.439, 604.621 622.266, 605.110 622.568 C 605.600 622.871, 606 624.415, 606 626 C 606 627.585, 606.450 629.160, 607 629.500 C 607.550 629.840, 608 631.441, 608 633.059 C 608 634.677, 608.450 636, 609 636 C 609.550 636, 610 637.800, 610 640 C 610 642.200, 610.450 644, 611 644 C 611.550 644, 612 645.800, 612 648 C 612 650.200, 612.340 652, 612.757 652 C 613.741 652, 616 659.261, 616 662.425 C 616 663.776, 616.450 665.160, 617 665.500 C 617.550 665.840, 618 667.441, 618 669.059 C 618 670.677, 618.450 672, 619 672 C 619.550 672, 620 673.800, 620 676 C 620 678.200, 620.340 680, 620.757 680 C 621.662 680, 624 687.155, 624 689.925 C 624 691.001, 624.450 692.160, 625 692.500 C 625.550 692.840, 626 694.415, 626 696 C 626 697.585, 626.450 699.160, 627 699.500 C 627.550 699.840, 628 701.441, 628 703.059 C 628 704.677, 628.450 706, 629 706 C 629.550 706, 630 707.104, 630 708.453 C 630 711.158, 631.928 716, 633.006 716 C 633.382 716, 634.505 715.100, 635.500 714 C 636.495 712.900, 637.735 712, 638.254 712 C 638.773 712, 640.391 710.761, 641.849 709.247 C 644.601 706.388, 650.051 704, 653.821 704 C 655.019 704, 656 703.550, 656 703 C 656 702.450, 657.350 702, 659 702 C 663.597 702, 666 698.931, 666 693.059 C 666 690.341, 666.450 687.840, 667 687.500 C 667.550 687.160, 668 684.460, 668 681.500 C 668 678.540, 668.450 675.840, 669 675.500 C 669.550 675.160, 670 671.560, 670 667.500 C 670 663.440, 670.450 659.840, 671 659.500 C 671.550 659.160, 672 656.010, 672 652.500 C 672 648.990, 672.450 645.840, 673 645.500 C 673.550 645.160, 674 642.010, 674 638.500 C 674 634.990, 674.450 631.840, 675 631.500 C 675.550 631.160, 676 627.560, 676 623.500 C 676 619.440, 676.450 615.840, 677 615.500 C 677.550 615.160, 678 612.010, 678 608.500 C 678 604.990, 678.450 601.840, 679 601.500 C 679.550 601.160, 680 598.010, 680 594.500 C 680 590.990, 680.450 587.840, 681 587.500 C 681.550 587.160, 682 584.434, 682 581.441 C 682 578.448, 682.450 576, 683 576 C 683.583 576, 684 572.667, 684 568 C 684 563.333, 684.417 560, 685 560 C 685.583 560, 686 556.667, 686 552 C 686 547.333, 686.417 544, 687 544 C 687.554 544, 688 541.353, 688 538.059 C 688 534.791, 688.450 531.840, 689 531.500 C 689.550 531.160, 690 527.984, 690 524.441 C 690 520.814, 690.437 518, 691 518 C 691.583 518, 692 514.686, 692 510.059 C 692 505.691, 692.450 501.840, 693 501.500 C 693.550 501.160, 694 498.235, 694 495 C 694 491.765, 694.450 488.840, 695 488.500 C 695.550 488.160, 696 484.785, 696 481 C 696 477.215, 696.450 473.840, 697 473.500 C 697.550 473.160, 698 470.074, 698 466.641 C 698 463.208, 698.409 459.972, 698.908 459.450 C 699.893 458.419, 700.789 451.913, 701.622 439.750 C 701.914 435.488, 702.568 432, 703.076 432 C 703.584 432, 704 428.400, 704 424 C 704 419.600, 704.393 416, 704.873 416 C 705.353 416, 706.009 413.863, 706.331 411.250 C 706.654 408.637, 707.391 403.125, 707.971 399 C 708.550 394.875, 709.304 387.900, 709.645 383.500 C 709.987 379.100, 710.673 374.710, 711.171 373.745 C 711.668 372.780, 712.105 369.539, 712.141 366.543 C 712.251 357.343, 706.230 358, 790.465 358 C 852.965 358, 864 357.789, 864 356.595 C 864 355.821, 863.148 353.459, 862.106 351.345 C 861.064 349.230, 859.635 345.565, 858.929 343.200 C 858.224 340.835, 857.292 338.680, 856.858 338.412 C 855.839 337.782, 609.785 337.882, 609.154 338.513 C 608.529 339.138, 610.808 346.152, 613.781 352.750 L 616.147 358 645.873 358 C 667.661 358, 675.920 358.320, 676.800 359.200 C 678.290 360.690, 678.346 364.965, 676.925 368.685 C 676.333 370.233, 675.860 374.188, 675.874 377.473 C 675.887 380.757, 675.450 383.722, 674.902 384.061 C 674.354 384.399, 673.895 388.005, 673.882 392.073 C 673.869 396.141, 673.458 399.717, 672.967 400.020 C 672.477 400.323, 671.838 403.030, 671.546 406.036 C 671.255 409.041, 670.537 414.875, 669.952 419 C 669.366 423.125, 668.653 429.988, 668.368 434.250 C 668.082 438.512, 667.432 442, 666.924 442 C 666.416 442, 666 445.150, 666 449 C 666 453, 665.571 456, 665 456 C 664.429 456, 664 458.980, 664 462.941 C 664 466.759, 663.550 470.160, 663 470.500 C 662.450 470.840, 662 473.990, 662 477.500 C 662 481.010, 661.550 484.160, 661 484.500 C 660.450 484.840, 660 487.540, 660 490.500 C 660 493.460, 659.550 496.160, 659 496.500 C 658.450 496.840, 658 500.466, 658 504.559 C 658 508.853, 657.577 512, 657 512 C 656.429 512, 656 514.980, 656 518.941 C 656 522.759, 655.550 526.160, 655 526.500 C 654.450 526.840, 654 529.765, 654 533 C 654 536.235, 653.550 539.160, 653 539.500 C 652.450 539.840, 652 543.215, 652 547 C 652 550.785, 651.550 554.160, 651 554.500 C 650.450 554.840, 650 557.990, 650 561.500 C 650 565.010, 649.550 568.160, 649 568.500 C 648.450 568.840, 648 571.990, 648 575.500 C 648 579.010, 647.550 582.160, 647 582.500 C 646.450 582.840, 646 586.440, 646 590.500 C 646 594.560, 645.550 598.160, 645 598.500 C 644.450 598.840, 644 601.116, 644 603.559 C 644 606.930, 643.621 608, 642.429 608 C 639.951 608, 638 605.414, 638 602.130 C 638 600.474, 637.550 598.840, 637 598.500 C 636.450 598.160, 636 596.559, 636 594.941 C 636 593.323, 635.550 592, 635 592 C 634.450 592, 634 590.200, 634 588 C 634 585.800, 633.550 584, 633 584 C 632.450 584, 632 582.650, 632 581 C 632 579.350, 631.550 578, 631 578 C 630.450 578, 630 576.452, 630 574.559 C 630 572.666, 629.550 570.840, 629 570.500 C 628.450 570.160, 628 568.559, 628 566.941 C 628 565.323, 627.550 564, 627 564 C 626.450 564, 626 562.200, 626 560 C 626 557.800, 625.550 556, 625 556 C 624.450 556, 624 554.650, 624 553 C 624 551.350, 623.550 550, 623 550 C 622.450 550, 622 548.677, 622 547.059 C 622 545.441, 621.550 543.840, 621 543.500 C 620.450 543.160, 620 541.334, 620 539.441 C 620 537.548, 619.550 536, 619 536 C 618.450 536, 618 534.200, 618 532 C 618 529.800, 617.550 528, 617 528 C 616.450 528, 616 526.650, 616 525 C 616 523.350, 615.550 522, 615 522 C 614.450 522, 614 520.677, 614 519.059 C 614 517.441, 613.550 515.840, 613 515.500 C 612.450 515.160, 612 513.135, 612 511 C 612 508.865, 611.550 506.840, 611 506.500 C 610.450 506.160, 610 504.559, 610 502.941 C 610 501.323, 609.550 500, 609 500 C 608.450 500, 608 498.650, 608 497 C 608 495.350, 607.550 494, 607 494 C 606.450 494, 606 492.650, 606 491 C 606 489.350, 605.550 488, 605 488 C 604.450 488, 604 486.227, 604 484.059 C 604 481.891, 603.550 479.840, 603 479.500 C 602.450 479.160, 601.993 477.896, 601.985 476.691 C 601.969 474.299, 599.783 467.449, 598.685 466.352 C 598.308 465.975, 598 463.942, 598 461.833 C 598 459.725, 597.550 458, 597 458 C 596.450 458, 596 456.902, 596 455.559 C 596 454.216, 595.550 452.840, 595 452.500 C 594.450 452.160, 594 450.790, 594 449.455 C 594 446.049, 591.746 438, 590.793 438 C 590.357 438, 590 436.650, 590 435 C 590 433.350, 589.550 432, 589 432 C 588.450 432, 588 430.419, 588 428.486 C 588 426.554, 587.573 424.191, 587.051 423.236 C 586.529 422.281, 585.828 419.368, 585.492 416.762 C 585.156 414.156, 584.189 411.332, 583.343 410.486 C 582.498 409.641, 582.055 408.298, 582.360 407.503 C 582.665 406.708, 582.331 405.473, 581.616 404.759 C 580.902 404.045, 580.275 401.976, 580.224 400.161 C 580.172 398.346, 579.704 396.330, 579.183 395.681 C 578.663 395.031, 578.006 392.925, 577.725 391 C 576.923 385.527, 574.201 376.742, 573.094 376.058 C 572.542 375.717, 572.129 374.552, 572.175 373.469 C 572.312 370.239, 570.189 362.563, 569.054 362.185 C 567.176 361.559, 567.938 359.155, 570.250 358.410 C 571.487 358.011, 576.325 357.418, 581 357.092 L 589.500 356.500 589.405 353 C 589.353 351.075, 587.735 346.125, 585.810 342 C 583.885 337.875, 580.804 331.241, 578.965 327.257 L 575.621 320.014 441.988 319.757 C 368.490 319.616, 307.713 319.652, 306.928 319.837 M 491.020 356.675 C 488.555 356.930, 485.994 357.590, 485.328 358.143 C 484.458 358.865, 484.097 364.826, 484.045 379.324 C 484.001 391.627, 483.587 399.630, 482.986 399.833 C 482.361 400.045, 482 414.011, 482 437.961 C 482 468.701, 482.255 475.967, 483.367 476.890 C 484.346 477.702, 495.617 477.950, 523.117 477.762 L 561.500 477.500 561.815 473.099 C 561.988 470.679, 561.761 468.429, 561.310 468.099 C 559.975 467.124, 558 460.607, 558 457.179 C 558 455.431, 557.550 454, 557 454 C 556.450 454, 556 453.351, 556 452.557 C 556 451.763, 554.650 447.084, 553 442.159 C 551.350 437.234, 550 431.835, 550 430.162 C 550 428.488, 549.550 426.840, 549 426.500 C 548.450 426.160, 548 424.596, 548 423.024 C 548 421.453, 547.643 420.017, 547.207 419.833 C 545.640 419.174, 538.043 392.241, 538.017 387.250 C 538.008 385.462, 537.550 384, 537 384 C 536.450 384, 536 382.869, 536 381.486 C 536 379.084, 535.704 378.218, 533.219 373.364 C 532.618 372.189, 531.547 368.428, 530.840 365.005 C 529.780 359.871, 529.112 358.608, 527.027 357.792 C 524.298 356.725, 498.347 355.919, 491.020 356.675" 
    class="mark"
    fill-rule="evenodd"
  />

</svg>
