<svg xmlns="http://www.w3.org/2000/svg"
     viewBox="0 0 512 512"
     width="128"
     height="128"
     role="img"
     aria-label="TikTok">
  <style>
    /* default = light mode */
    .base { fill: #000000; }
    .pink { fill: #ff0050; }
    .cyan { fill: #00f2ea; }

    @media (prefers-color-scheme: dark) {
      .base { fill: #ffffff; }
    }
  </style>

  <path class="cyan"
        d="M219 200a117 117 0 1 0 101 115v-128a150 150 0 0 0 88 28v-63a88 88 0 0 1-88-88h-64v252a54 54 0 1 1-37-51z"
        transform="translate(-14, -14)" />
  <path class="pink"
        d="M219 200a117 117 0 1 0 101 115v-128a150 150 0 0 0 88 28v-63a88 88 0 0 1-88-88h-64v252a54 54 0 1 1-37-51z"
        transform="translate(14, 14)" />
  <path class="base"
        d="M219 200a117 117 0 1 0 101 115v-128a150 150 0 0 0 88 28v-63a88 88 0 0 1-88-88h-64v252a54 54 0 1 1-37-51z"/>
</svg>
